<svg width="257" height="62" viewBox="0 0 257 62" fill="none" xmlns="http://www.w3.org/2000/svg">
<path d="M14.5 34.7593C14.5 34.746 14.4933 34.7327 14.4933 34.7193C14.4867 34.666 14.48 34.6127 14.46 34.566C14.4333 34.506 14.4 34.4593 14.36 34.4127C14.36 34.4127 14.36 34.406 14.3533 34.406C14.3067 34.3593 14.2533 34.326 14.1933 34.2993C14.1333 34.2727 14.0667 34.2593 14 34.2593L10.8867 34.2727C10.8867 34.2727 10.8867 34.2727 10.88 34.2727C10.48 34.2727 10.0933 34.086 9.85333 33.766L9.04 32.7193C8.87333 32.4993 8.56 32.4593 8.34 32.6327C8.12 32.806 8.08 33.1127 8.25333 33.3327L9.06666 34.3793C9.5 34.9393 10.18 35.2727 10.8867 35.2727H10.8933L12.7933 35.266L12.32 35.7393C12.1267 35.9327 12.1267 36.2527 12.32 36.446C12.42 36.546 12.5467 36.5927 12.6733 36.5927C12.8 36.5927 12.9267 36.546 13.0267 36.446L14.36 35.1127C14.4067 35.066 14.44 35.0127 14.4667 34.9527C14.4867 34.886 14.5 34.8193 14.5 34.7593Z" fill="white"/>
<path d="M5.61333 27.2327C5.18 26.6327 4.48667 26.2793 3.74667 26.2793C3.74 26.2793 3.74 26.2793 3.73333 26.2793L2 26.286C1.72667 26.286 1.5 26.5127 1.5 26.786C1.5 27.0593 1.72667 27.286 2 27.286L3.74 27.2793H3.74667C4.16667 27.2793 4.56 27.4793 4.8 27.8193L5.52 28.8193C5.62 28.9527 5.77333 29.026 5.92667 29.026C6.02667 29.026 6.13333 28.9927 6.22 28.9327C6.44667 28.766 6.49333 28.4527 6.33333 28.2327L5.61333 27.2327Z" fill="white"/>
<path d="M14.4933 26.826C14.4933 26.8126 14.5 26.7993 14.5 26.7926C14.5 26.726 14.4867 26.6593 14.46 26.5993C14.4333 26.5393 14.4 26.486 14.3533 26.4393L13.02 25.106C12.8267 24.9126 12.5067 24.9126 12.3133 25.106C12.12 25.2993 12.12 25.6193 12.3133 25.8126L12.7867 26.286L10.9667 26.2793C10.96 26.2793 10.96 26.2793 10.9533 26.2793C10.1867 26.2793 9.46667 26.6593 9.04 27.306L4.78 33.6926C4.54 34.0526 4.13333 34.2726 3.7 34.2726H3.69333L2 34.2593C1.72667 34.2593 1.5 34.4793 1.5 34.7593C1.5 35.0326 1.72 35.2593 2 35.2593L3.7 35.266C3.70667 35.266 3.70667 35.266 3.71333 35.266C4.48667 35.266 5.2 34.886 5.62667 34.2393L9.88667 27.8526C10.1267 27.4926 10.5333 27.2726 10.9667 27.2726H10.9733L14 27.286C14.0667 27.286 14.1267 27.2726 14.1933 27.246C14.2533 27.2193 14.3067 27.186 14.3533 27.1393C14.3533 27.1393 14.3533 27.1326 14.36 27.1326C14.4 27.086 14.44 27.0393 14.46 26.9793C14.48 26.9326 14.4867 26.8793 14.4933 26.826Z" fill="white"/>
<path d="M71.4933 27.586V33.966C71.4933 35.2726 70.0733 36.0926 68.94 35.4393L66.1733 33.846L63.4067 32.246C62.2733 31.5926 62.2733 29.9593 63.4067 29.306L66.1733 27.706L68.94 26.1126C70.0733 25.4593 71.4933 26.2726 71.4933 27.586Z" fill="white"/>
<path d="M60.5067 35.3926C60.2334 35.3926 60.0067 35.166 60.0067 34.8926V26.6526C60.0067 26.3793 60.2334 26.1526 60.5067 26.1526C60.78 26.1526 61.0067 26.3793 61.0067 26.6526V34.8926C61.0067 35.166 60.78 35.3926 60.5067 35.3926Z" fill="white"/>
<g filter="url(#filter0_d_19_142)">
<rect x="116" y="18" width="25" height="25.5453" rx="12.5" fill="#FACD66" shape-rendering="crispEdges"/>
<path d="M124.333 30.7726V28.9536C124.333 26.6192 125.986 25.6643 128.002 26.8315L129.578 27.7409L131.155 28.6504C133.171 29.8176 133.171 31.7276 131.155 32.8948L129.578 33.8043L128.002 34.7138C125.986 35.881 124.333 34.926 124.333 32.5917V30.7726Z" fill="#EFEEE0"/>
</g>
<path d="M185.507 27.586V33.966C185.507 35.2726 186.927 36.0926 188.06 35.4393L190.827 33.846L193.593 32.246C194.727 31.5926 194.727 29.9593 193.593 29.306L190.827 27.706L188.06 26.1126C186.927 25.4593 185.507 26.2726 185.507 27.586Z" fill="white"/>
<path d="M196.493 35.3926C196.22 35.3926 195.993 35.166 195.993 34.8926V26.6526C195.993 26.3793 196.22 26.1526 196.493 26.1526C196.767 26.1526 196.993 26.3793 196.993 26.6526V34.8926C196.993 35.166 196.773 35.3926 196.493 35.3926Z" fill="white"/>
<path d="M243.607 34.226C243.48 34.226 243.353 34.1793 243.253 34.0793C242.34 33.1593 241.833 31.946 241.833 30.6593C241.833 27.986 244 25.8126 246.667 25.8126L250.713 25.826L249.987 25.1326C249.787 24.9393 249.78 24.626 249.973 24.426C250.167 24.226 250.48 24.2193 250.68 24.4126L252.307 25.9726C252.453 26.1126 252.5 26.3326 252.427 26.5193C252.353 26.706 252.167 26.8326 251.96 26.8326L246.667 26.8193C244.553 26.8193 242.833 28.546 242.833 30.666C242.833 31.686 243.233 32.6526 243.96 33.3793C244.153 33.5726 244.153 33.8926 243.96 34.086C243.86 34.1793 243.733 34.226 243.607 34.226Z" fill="white"/>
<path d="M247.667 37.2726C247.54 37.2726 247.42 37.226 247.32 37.1326L245.693 35.5726C245.547 35.4326 245.5 35.2126 245.573 35.026C245.653 34.8393 245.84 34.7393 246.04 34.7126L251.34 34.726C253.453 34.726 255.173 32.9993 255.173 30.8793C255.173 29.8593 254.773 28.8926 254.047 28.166C253.853 27.9726 253.853 27.6526 254.047 27.4593C254.24 27.266 254.56 27.266 254.753 27.4593C255.667 28.3793 256.173 29.5926 256.173 30.8793C256.173 33.5526 254.007 35.726 251.34 35.726L247.293 35.7126L248.02 36.406C248.22 36.5993 248.227 36.9126 248.033 37.1126C247.927 37.2193 247.8 37.2726 247.667 37.2726Z" fill="white"/>
<path d="M249.167 33.0526C248.893 33.0526 248.667 32.826 248.667 32.5526V30.2926L248.54 30.4326C248.353 30.6393 248.04 30.6526 247.833 30.4726C247.627 30.2926 247.613 29.9726 247.793 29.766L248.793 28.6526C248.933 28.4993 249.153 28.446 249.347 28.5193C249.54 28.5993 249.667 28.7793 249.667 28.9926V32.5593C249.667 32.8326 249.44 33.0526 249.167 33.0526Z" fill="white"/>
<defs>
<filter id="filter0_d_19_142" x="98" y="0" width="61" height="61.5453" filterUnits="userSpaceOnUse" color-interpolation-filters="sRGB">
<feFlood flood-opacity="0" result="BackgroundImageFix"/>
<feColorMatrix in="SourceAlpha" type="matrix" values="0 0 0 0 0 0 0 0 0 0 0 0 0 0 0 0 0 0 127 0" result="hardAlpha"/>
<feOffset/>
<feGaussianBlur stdDeviation="9"/>
<feComposite in2="hardAlpha" operator="out"/>
<feColorMatrix type="matrix" values="0 0 0 0 1 0 0 0 0 1 0 0 0 0 1 0 0 0 0.3 0"/>
<feBlend mode="normal" in2="BackgroundImageFix" result="effect1_dropShadow_19_142"/>
<feBlend mode="normal" in="SourceGraphic" in2="effect1_dropShadow_19_142" result="shape"/>
</filter>
</defs>
</svg>
